<svg width="151" height="54" viewBox="0 0 151 54" fill="none" xmlns="http://www.w3.org/2000/svg">
<g clip-path="url(#clip0_76_10961)">
<path d="M69.9675 21.8056C67.4361 22.6244 65.116 23.263 62.5457 23.8291L62.1097 13.2616C64.2203 12.7797 66.26 12.468 68.5649 12.4074L69.9692 21.8072L69.9675 21.8056Z" fill="#0558F6"/>
<path d="M63.6948 3.32593C65.8916 2.70758 67.8957 4.04368 68.4432 5.94927C69.0313 7.99301 67.8281 10.0991 65.7902 10.6736C63.7523 11.2482 61.7566 10.1547 61.0942 8.22721C60.4233 6.27108 61.4237 3.96449 63.6931 3.32593H63.6948Z" fill="#FF5C29"/>
<path d="M73.1967 30.4119L73.5347 30.4456C73.5347 28.663 73.6665 26.7523 73.6969 24.9411L73.1967 30.4102V30.4119Z" fill="#0558F6"/>
<path d="M96.2477 34.4572C95.4282 29.251 94.6137 24.0431 93.8025 18.8351C93.1875 14.8824 92.574 10.9297 91.9623 6.97535C89.8568 6.72094 87.8307 6.59963 85.6778 6.54234C85.4683 8.1834 85.2571 9.82446 85.0442 11.4672C84.838 13.0544 84.6318 14.6398 84.4223 16.227L82.3945 2.95694C82.3269 2.69579 82.261 2.43463 82.1934 2.17348C79.3528 2.05385 76.5122 1.93423 73.6716 1.8146C73.2221 9.98284 72.7743 18.1511 72.3248 26.321C72.2944 28.1322 72.1643 30.0429 72.1626 31.8255L81.9298 32.8246C81.9247 31.6014 81.9197 29.8609 81.9281 27.7649C81.9416 24.2385 81.9619 23.0844 82.1123 23.0709C82.2678 23.0574 82.4435 24.2924 82.9859 26.8804C83.3324 28.5282 83.6484 29.8693 83.863 30.7522C84.9546 30.6326 86.0445 30.5113 87.1362 30.3916C87.2781 29.711 87.4234 29.0269 87.5721 28.3395C87.7597 27.4633 87.9507 26.5923 88.1433 25.7262C88.5877 28.3462 89.0034 31.0437 89.3836 33.8187C89.6844 36.0174 89.9497 38.1757 90.1829 40.2902C92.2057 38.3476 94.2267 36.4049 96.2494 34.4606L96.2477 34.4572Z" fill="#0558F6"/>
<path d="M109.572 29.1549C108.504 32.6949 104.401 33.1835 102.941 32.7926C96.4691 31.0622 95.5583 15.9523 95.9942 10.4445C96.2021 7.82958 98.2181 5.80268 100.776 5.68474C102.5 5.60556 103.835 6.56088 104.766 7.83295C107.397 11.4251 108.605 15.4502 109.418 19.7955C110.013 22.9732 110.517 26.0211 109.572 29.1549ZM102.848 12.0283C102.656 12.0839 102.248 12.5219 102.24 12.7646L102.105 16.729C102.084 17.3339 101.851 28.4086 103.294 27.2477C104.737 26.0868 104.56 11.5245 102.847 12.0283H102.848Z" fill="#0558F6"/>
<path d="M112.93 29.0252C111.961 25.5931 111.517 22.9108 111.372 21.9757C111.191 20.8216 111.095 19.9606 110.902 18.2387C110.691 16.3651 110.552 14.7965 110.461 13.6744C110.811 13.6087 111.166 13.5463 111.525 13.4874C112.805 13.2751 114.043 13.1201 115.235 13.0105C115.331 14.6786 115.514 16.505 115.821 18.4594C116.127 20.3987 116.511 22.1779 116.926 23.7853C116.957 23.8476 117.342 24.5839 118.134 24.6816C118.837 24.7692 119.561 24.316 119.843 23.5646C119.78 22.3026 119.718 21.0406 119.655 19.7787C119.431 17.3188 119.204 14.8572 118.979 12.3973C121.073 12.2709 123.167 12.1462 125.259 12.0198C125.154 13.5042 125.058 15.0004 124.966 16.5083C124.677 21.29 124.818 21.3186 124.6 23.4197C124.201 27.2376 123.523 29.7143 123.128 31.0032C122.905 31.7328 122.695 32.336 122.54 32.7606C121.386 32.9173 120.069 33.0268 118.618 33.0318C116.918 33.0386 115.395 32.8987 114.092 32.7033C113.606 31.3116 113.225 30.0681 112.931 29.0269L112.93 29.0252Z" fill="#0558F6"/>
<path d="M143.955 13.6053C143.845 15.6271 143.734 17.6473 143.624 19.6691L143.438 23.2714C143.323 26.1458 143.075 27.62 142.96 30.4961C142.982 29.374 142.938 31.6182 142.96 30.4961C138.566 31.9282 135.484 32.4337 130.563 33.6653C130.448 32.7774 130.332 31.8861 130.21 30.9948C129.132 23.0119 127.864 15.2093 126.432 7.59033L133.226 6.51707L134.859 16.1798C135.053 17.1621 135.261 18.1595 135.484 19.1738C135.705 20.1847 135.935 21.1754 136.17 22.1459L137.446 13.2852C139.616 13.3913 141.787 13.4992 143.958 13.6053H143.955Z" fill="#0558F6"/>
<path d="M26.0335 30.6427C23.5326 32.4286 20.6328 33.5963 17.6503 34.0596C14.3365 34.5735 11.4689 33.2627 9.34473 30.7909C6.69508 27.7093 4.38001 24.5805 1.95679 21.0592L11.0903 16.3314L14.2824 21.5747C15.2321 22.6463 16.1548 23.883 17.6604 24.0431C18.4428 24.1256 19.5091 23.7145 19.9265 23.2394C20.5416 22.5402 20.4621 21.5309 20.1715 20.6801C18.7554 16.5471 14.9465 21.0743 12.3205 16.3752C9.69453 11.6761 7.35242 3.43207 13.8076 0.633508C16.3305 -0.461655 19.1576 0.350451 20.5145 2.86596C21.5673 4.81872 22.2263 6.8136 22.9006 9.13703C21.427 9.84973 20.2458 10.3097 18.5594 10.6939L16.6279 6.33678C16.5417 6.14134 16.0703 5.86671 15.9047 5.80437C14.9668 5.45054 15.1155 8.28618 16.3068 10.4041C17.8902 13.2178 21.8799 9.87669 24.9013 13.5986C27.4614 16.751 28.6088 20.5941 28.8809 24.6277C29.0448 27.059 28.1559 29.133 26.0369 30.6461L26.0335 30.6427Z" fill="#0558F6"/>
<path d="M70.3494 22.5233C70.2226 25.6066 70.0959 28.6916 69.9675 31.7749L49.5881 34.4589L44.0505 11.3088L42.2492 4.10265C42.1697 3.77073 42.092 3.43881 42.0126 3.10521C45.0864 2.0707 48.1602 1.03619 51.234 0L52.0975 13.7182L53.1012 27.8306C58.8501 26.0615 64.6006 24.2924 70.3494 22.5233Z" fill="#0558F6"/>
<path d="M44.1925 28.8753C43.2698 32.4556 39.1889 33.1076 37.7137 32.7774C31.1774 31.3099 29.6549 16.2472 29.8678 10.7276C29.9692 8.1059 31.9023 5.99981 34.4523 5.7791C36.1725 5.63083 37.543 6.53223 38.5265 7.76556C41.3012 11.2499 42.6716 15.2211 43.6585 19.531C44.38 22.6834 45.007 25.7077 44.1908 28.8753H44.1925ZM37.0732 12.03C36.884 12.0889 36.475 12.5219 36.4666 12.7629L36.3314 16.7274C36.3111 17.339 36.0779 28.4035 37.5227 27.2477C38.9658 26.0935 38.7833 11.4959 37.0749 12.03H37.0732Z" fill="#0558F6"/>
<path d="M7.03306 30.2484C4.81431 27.0236 2.59387 23.7971 0.375122 20.5722C2.2238 19.6843 4.07247 18.7981 5.92115 17.9101" stroke="#FF5C29" stroke-miterlimit="10"/>
<path d="M43.748 13.6087C42.7595 9.7756 41.7693 5.94253 40.7807 2.10945C42.6159 1.65791 44.4527 1.20637 46.2879 0.753136" stroke="#FF5C29" stroke-miterlimit="10"/>
<path d="M136.538 33.6973C139.496 32.8549 141.785 32.2889 144.565 31.7597C144.565 30.1591 144.565 28.6427 144.565 27.1264" stroke="#FF5C29" stroke-miterlimit="10"/>
<g clip-path="url(#clip1_76_10961)">
<path d="M11.6598 41.7847H17.3968V42.7164H12.7244V45.3465H16.6161V46.2429H12.7244V50.2175H11.6598V41.7847Z" fill="#0558F6"/>
<path d="M17.4796 47.1746C17.4796 45.4055 18.6388 43.9666 20.3776 43.9666C22.2111 43.9666 23.1929 45.3819 23.1929 47.3987H18.4613C18.5323 48.6371 19.2066 49.5806 20.4368 49.5806C21.3239 49.5806 21.9154 49.156 22.1283 48.3304H23.0628C22.7789 49.6396 21.8207 50.3826 20.4368 50.3826C18.5678 50.3826 17.4796 48.9437 17.4796 47.1746ZM18.485 46.6793H22.1638C22.1046 45.4645 21.4777 44.7214 20.3776 44.7214C19.2775 44.7214 18.6269 45.5706 18.485 46.6793Z" fill="#0558F6"/>
<path d="M23.737 48.2361H24.7188C24.8489 49.2975 25.5586 49.5924 26.4695 49.5924C27.4749 49.5924 27.8889 49.156 27.8889 48.5899C27.8889 47.9058 27.4158 47.7289 26.292 47.493C25.0855 47.2454 24.0091 46.9977 24.0091 45.665C24.0091 44.6507 24.7898 43.9902 26.2092 43.9902C27.7233 43.9902 28.4685 44.7096 28.6105 45.9008H27.6287C27.5341 45.0988 27.0964 44.745 26.1856 44.745C25.2747 44.745 24.9554 45.1342 24.9554 45.6178C24.9554 46.2783 25.5468 46.408 26.5996 46.6203C27.8298 46.868 28.8589 47.1392 28.8589 48.5427C28.8589 49.7693 27.8534 50.3944 26.4458 50.3944C24.7661 50.3944 23.8316 49.6042 23.737 48.2361Z" fill="#0558F6"/>
<path d="M29.2729 44.1199H30.16V42.1975H31.1182V44.1199H32.3011V44.8984H31.1182V48.8612C31.1182 49.2857 31.3429 49.4273 31.7333 49.4273C31.9225 49.4273 32.1355 49.3801 32.2419 49.3447H32.2774V50.1703C32.0527 50.2175 31.7924 50.2529 31.5085 50.2529C30.7278 50.2529 30.16 49.9344 30.16 49.0735V44.8984H29.2729V44.1199Z" fill="#0558F6"/>
<path d="M33.2947 41.7847H34.2528V42.9641H33.2947V41.7847ZM33.2947 44.1199H34.2528V50.2175H33.2947V44.1199Z" fill="#0558F6"/>
<path d="M34.9271 44.1199H35.9562L37.2219 47.9884C37.3993 48.5309 37.624 49.274 37.624 49.274H37.6477C37.6477 49.274 37.8724 48.5191 38.0499 47.9884L39.3392 44.1199H40.3328L38.1327 50.2175H37.0681L34.9271 44.1199Z" fill="#0558F6"/>
<path d="M44.5794 49.3683H44.5676C44.2009 49.8401 43.5739 50.3354 42.533 50.3354C41.3738 50.3354 40.463 49.7929 40.463 48.6371C40.463 47.1982 41.5985 46.9033 43.1244 46.6675C43.9879 46.5377 44.5912 46.4552 44.5912 45.7947C44.5912 45.1342 44.0944 44.7214 43.2191 44.7214C42.2254 44.7214 41.7286 45.146 41.6931 46.066H40.7705C40.806 44.8866 41.5867 44.002 43.2072 44.002C44.5084 44.002 45.4665 44.4856 45.4665 45.9362V48.8376C45.4665 49.3329 45.5848 49.6042 46.1171 49.4862H46.1526V50.1821C46.0343 50.2293 45.8806 50.2764 45.6321 50.2764C45.0052 50.2764 44.674 49.9934 44.5794 49.3683ZM44.603 47.9648V46.9269C44.2837 47.1274 43.7277 47.2808 43.2072 47.3751C42.2491 47.552 41.4802 47.7171 41.4802 48.6135C41.4802 49.4273 42.119 49.6042 42.7459 49.6042C44.0234 49.6042 44.603 48.6725 44.603 47.9648Z" fill="#0558F6"/>
<path d="M46.8978 41.7847H47.856V50.2192H46.8978V41.7847Z" fill="#0558F6"/>
<path d="M50.7304 47.1864C50.7304 45.1578 51.9015 43.9784 53.4156 43.9784C54.2791 43.9784 54.9415 44.403 55.3318 44.9809H55.3555V41.7847H56.3136V50.2192H55.3555V49.4761H55.3318C54.8705 50.0658 54.3027 50.3961 53.4392 50.3961C51.7713 50.3961 50.7304 49.1459 50.7304 47.1881V47.1864ZM55.4146 47.1982C55.4146 45.7829 54.7285 44.7922 53.4629 44.7922C52.3036 44.7922 51.7122 45.8301 51.7122 47.1982C51.7122 48.5663 52.3036 49.5924 53.4747 49.5924C54.835 49.5924 55.4146 48.5781 55.4146 47.1982Z" fill="#0558F6"/>
<path d="M61.5065 50.2192V49.3818H61.4828C61.0451 49.9715 60.5247 50.3607 59.6375 50.3607C58.3836 50.3607 57.5793 49.6059 57.5793 48.3439V44.1199H58.5374V48.3186C58.5374 49.1088 59.0461 49.5688 59.9096 49.5688C60.8795 49.5688 61.5065 48.8376 61.5065 47.8705V44.1199H62.4646V50.2175H61.5065V50.2192Z" fill="#0558F6"/>
<path d="M65.2545 48.2361H66.2363C66.3664 49.2975 67.0761 49.5924 67.9869 49.5924C68.9924 49.5924 69.4064 49.156 69.4064 48.5899C69.4064 47.9058 68.9332 47.7289 67.8095 47.493C66.603 47.2454 65.5265 46.9977 65.5265 45.665C65.5265 44.6507 66.3073 43.9902 67.7267 43.9902C69.2408 43.9902 69.986 44.7096 70.128 45.9008H69.1462C69.0515 45.0988 68.6139 44.745 67.7031 44.745C66.7922 44.745 66.4729 45.1342 66.4729 45.6178C66.4729 46.2783 67.0643 46.408 68.1171 46.6203C69.3473 46.868 70.3764 47.1392 70.3764 48.5427C70.3764 49.7693 69.3709 50.3944 67.9633 50.3944C66.2836 50.3944 65.3491 49.6042 65.2545 48.2361Z" fill="#0558F6"/>
<path d="M71.299 44.1199H72.2571V44.9809H72.2808C72.7421 44.3558 73.3572 43.9784 74.2444 43.9784C75.794 43.9784 76.8704 45.1578 76.8704 47.1864C76.8704 49.215 75.8649 50.3944 74.2089 50.3944C73.3809 50.3944 72.7894 50.1467 72.2808 49.498H72.2571V52.1753H71.299V44.1199ZM75.8903 47.1982C75.8903 45.8301 75.3107 44.7922 74.1514 44.7922C72.8148 44.7922 72.1997 45.8773 72.1997 47.1982C72.1997 48.5191 72.732 49.5924 74.1396 49.5924C75.3107 49.5924 75.8903 48.5781 75.8903 47.1982Z" fill="#0558F6"/>
<path d="M77.4855 47.1746C77.4855 45.4055 78.6211 43.9666 80.4427 43.9666C82.2643 43.9666 83.3881 45.4055 83.3881 47.1746C83.3881 48.9437 82.2762 50.3826 80.4427 50.3826C78.6092 50.3826 77.4855 48.9437 77.4855 47.1746ZM82.408 47.1746C82.408 45.8301 81.7456 44.7568 80.4444 44.7568C79.1432 44.7568 78.469 45.8301 78.469 47.1746C78.469 48.5191 79.1432 49.5806 80.4444 49.5806C81.7456 49.5806 82.408 48.5191 82.408 47.1746Z" fill="#0558F6"/>
<path d="M85.3044 45.1342H85.328C85.6947 44.5445 86.3335 44.0492 87.1497 44.0492C87.3271 44.0492 87.4217 44.0728 87.54 44.1199V45.0399H87.5045C87.3626 44.9927 87.2679 44.9809 87.0787 44.9809C86.1324 44.9809 85.3044 45.6886 85.3044 46.8326V50.2175H84.3462V44.1199H85.3044V45.1342Z" fill="#0558F6"/>
<path d="M88.0132 44.1199H88.9003V42.1975H89.8585V44.1199H91.0413V44.8984H89.8585V48.8612C89.8585 49.2857 90.0832 49.4273 90.4735 49.4273C90.6628 49.4273 90.8757 49.3801 90.9822 49.3447H91.0177V50.1703C90.7929 50.2175 90.5327 50.2529 90.2488 50.2529C89.4681 50.2529 88.9003 49.9344 88.9003 49.0735V44.8984H88.0132V44.1199Z" fill="#0558F6"/>
<path d="M93.9157 44.1199H94.8739V44.9809H94.8975C95.3589 44.3558 95.974 43.9784 96.8611 43.9784C98.4107 43.9784 99.4871 45.1578 99.4871 47.1864C99.4871 49.215 98.4817 50.3944 96.8256 50.3944C95.9976 50.3944 95.4062 50.1467 94.8975 49.498H94.8739V52.1753H93.9157V44.1199ZM98.5053 47.1982C98.5053 45.8301 97.9257 44.7922 96.7665 44.7922C95.4298 44.7922 94.8147 45.8773 94.8147 47.1982C94.8147 48.5191 95.347 49.5924 96.7547 49.5924C97.9257 49.5924 98.5053 48.5781 98.5053 47.1982Z" fill="#0558F6"/>
<path d="M100.102 47.1746C100.102 45.4055 101.238 43.9666 103.059 43.9666C104.881 43.9666 106.005 45.4055 106.005 47.1746C106.005 48.9437 104.893 50.3826 103.059 50.3826C101.226 50.3826 100.102 48.9437 100.102 47.1746ZM105.023 47.1746C105.023 45.8301 104.361 44.7568 103.059 44.7568C101.758 44.7568 101.084 45.8301 101.084 47.1746C101.084 48.5191 101.758 49.5806 103.059 49.5806C104.361 49.5806 105.023 48.5191 105.023 47.1746Z" fill="#0558F6"/>
<path d="M110.855 50.2192V49.3818H110.831C110.393 49.9715 109.873 50.3607 108.986 50.3607C107.732 50.3607 106.927 49.6059 106.927 48.3439V44.1199H107.886V48.3186C107.886 49.1088 108.394 49.5688 109.258 49.5688C110.228 49.5688 110.855 48.8376 110.855 47.8705V44.1199H111.813V50.2175H110.855V50.2192Z" fill="#0558F6"/>
<path d="M114.072 45.1342H114.096C114.462 44.5445 115.101 44.0492 115.917 44.0492C116.095 44.0492 116.189 44.0728 116.308 44.1199V45.0399H116.272C116.13 44.9927 116.036 44.9809 115.846 44.9809C114.9 44.9809 114.072 45.6886 114.072 46.8326V50.2175H113.114V44.1199H114.072V45.1342Z" fill="#0558F6"/>
<path d="M118.662 44.1199H119.549V42.1975H120.507V44.1199H121.69V44.8984H120.507V48.8612C120.507 49.2857 120.732 49.4273 121.122 49.4273C121.311 49.4273 121.524 49.3801 121.631 49.3447H121.666V50.1703C121.441 50.2175 121.181 50.2529 120.897 50.2529C120.117 50.2529 119.549 49.9344 119.549 49.0735V44.8984H118.662V44.1199Z" fill="#0558F6"/>
<path d="M122.281 47.1746C122.281 45.4055 123.417 43.9666 125.238 43.9666C127.06 43.9666 128.184 45.4055 128.184 47.1746C128.184 48.9437 127.072 50.3826 125.238 50.3826C123.405 50.3826 122.281 48.9437 122.281 47.1746ZM127.202 47.1746C127.202 45.8301 126.54 44.7568 125.238 44.7568C123.937 44.7568 123.263 45.8301 123.263 47.1746C123.263 48.5191 123.937 49.5806 125.238 49.5806C126.54 49.5806 127.202 48.5191 127.202 47.1746Z" fill="#0558F6"/>
<path d="M133.034 50.2192V49.3818H133.01C132.572 49.9715 132.052 50.3607 131.165 50.3607C129.911 50.3607 129.107 49.6059 129.107 48.3439V44.1199H130.065V48.3186C130.065 49.1088 130.573 49.5688 131.437 49.5688C132.407 49.5688 133.034 48.8376 133.034 47.8705V44.1199H133.992V50.2175H133.034V50.2192Z" fill="#0558F6"/>
<path d="M134.903 48.2361H135.884C136.015 49.2975 136.724 49.5924 137.635 49.5924C138.641 49.5924 139.055 49.156 139.055 48.5899C139.055 47.9058 138.581 47.7289 137.458 47.493C136.251 47.2454 135.175 46.9977 135.175 45.665C135.175 44.6507 135.955 43.9902 137.375 43.9902C138.889 43.9902 139.634 44.7096 139.776 45.9008H138.794C138.7 45.0988 138.262 44.745 137.351 44.745C136.44 44.745 136.121 45.1342 136.121 45.6178C136.121 46.2783 136.712 46.408 137.765 46.6203C138.995 46.868 140.024 47.1392 140.024 48.5427C140.024 49.7693 139.019 50.3944 137.611 50.3944C135.932 50.3944 134.997 49.6042 134.903 48.2361Z" fill="#0558F6"/>
</g>
</g>
<defs>
<clipPath id="clip0_76_10961">
<rect width="151" height="54" fill="white"/>
</clipPath>
<clipPath id="clip1_76_10961">
<rect width="128.365" height="10.3923" fill="white" transform="translate(11.6598 41.7847)"/>
</clipPath>
</defs>
</svg>
